<svg xmlns="http://www.w3.org/2000/svg" style="display: none;">
  
  <!-- Phone Icon -->
  <symbol id="phone" viewBox="0 0 24 24">
    <path d="M20.01 15.38c-1.23 0-2.42-.2-3.53-.56a.977.977 0 00-1.01.24l-1.57 1.97c-2.83-1.35-5.48-3.9-6.89-6.83l1.95-1.66c.27-.28.35-.67.24-1.02-.37-1.11-.56-2.3-.56-3.53 0-.54-.45-.99-.99-.99H4.19C3.65 3 3 3.24 3 3.99 3 13.28 10.73 21 20.01 21c.71 0 .99-.63.99-1.18v-3.45c0-.54-.45-.99-.99-.99z"/>
  </symbol>
  
  <!-- Shield/Check Icon -->
  <symbol id="shield" viewBox="0 0 24 24">
    <path d="M12 2L4 5v6.09c0 5.05 3.41 9.76 8 10.91 4.59-1.15 8-5.86 8-10.91V5l-8-3zm-1.06 13.54L7.4 12l1.41-1.41 2.12 2.12 4.24-4.24 1.41 1.41-5.64 5.66z"/>
  </symbol>
  
  <!-- VK Icon -->
  <symbol id="vk" viewBox="0 0 24 24">
    <path d="M12.785 16.241s.288-.032.436-.195c.136-.149.132-.428.132-.428s-.019-1.307.587-1.5c.598-.19 1.368 1.264 2.182 1.823.616.424 1.084.331 1.084.331l2.178-.03s1.139-.071.599-0.966c-.044-.073-.315-.664-1.619-1.878-1.365-1.271-1.181-1.065.462-3.263.999-1.338 1.398-2.154 1.273-2.503-.119-.333-.854-.245-.854-.245l-2.453.015s-.182-.025-.316.056c-.131.08-.215.265-.215.265s-.386 1.028-.9 1.902c-1.082 1.844-1.515 1.942-1.692 1.827-.412-.267-.309-1.073-.309-1.645 0-1.788.271-2.533-.527-2.725-.265-.064-.46-.106-1.138-.113-.869-.009-1.605.003-2.021.207-.277.135-.491.437-.361.454.161.022.525.098.718.361.249.34.24 1.104.24 1.104s.143 2.104-.334 2.365c-.328.179-.777-.187-1.742-1.862-.494-.851-.867-1.793-.867-1.793s-.072-.177-.2-.271c-.155-.115-.372-.151-.372-.151l-2.329.015s-.35.01-.478.162c-.114.135-.009.414-.009.414s1.816 4.25 3.873 6.397c1.885 1.969 4.022 1.839 4.022 1.839h.971z"/>
  </symbol>
  
  <!-- Instagram Icon -->
  <symbol id="inst" viewBox="0 0 24 24">
    <path d="M7.8 2h8.4C19.4 2 22 4.6 22 7.8v8.4a5.8 5.8 0 01-5.8 5.8H7.8C4.6 22 2 19.4 2 16.2V7.8A5.8 5.8 0 017.8 2m-.2 2A3.6 3.6 0 004 7.6v8.8C4 18.39 5.61 20 7.6 20h8.8a3.6 3.6 0 003.6-3.6V7.6C20 5.61 18.39 4 16.4 4H7.6m9.65 1.5a1.25 1.25 0 011.25 1.25A1.25 1.25 0 0117.25 8 1.25 1.25 0 0116 6.75a1.25 1.25 0 011.25-1.25M12 7a5 5 0 015 5 5 5 0 01-5 5 5 5 0 01-5-5 5 5 0 015-5m0 2a3 3 0 00-3 3 3 3 0 003 3 3 3 0 003-3 3 3 0 00-3-3z"/>
  </symbol>
  
  <!-- Facebook Icon -->
  <symbol id="facebook" viewBox="0 0 24 24">
    <path d="M12 2.04c-5.5 0-10 4.49-10 10.02 0 5 3.66 9.15 8.44 9.9v-7H7.9v-2.9h2.54V9.85c0-2.51 1.49-3.89 3.78-3.89 1.09 0 2.23.19 2.23.19v2.47h-1.26c-1.24 0-1.63.77-1.63 1.56v1.88h2.78l-.45 2.9h-2.33v7a10 10 0 008.44-9.9c0-5.53-4.5-10.02-10-10.02z"/>
  </symbol>
  
  <!-- Email Icon -->
  <symbol id="email" viewBox="0 0 24 24">
    <path d="M20 4H4c-1.1 0-1.99.9-1.99 2L2 18c0 1.1.9 2 2 2h16c1.1 0 2-.9 2-2V6c0-1.1-.9-2-2-2zm0 4l-8 5-8-5V6l8 5 8-5v2z"/>
  </symbol>
  
  <!-- Location Icon -->
  <symbol id="location" viewBox="0 0 24 24">
    <path d="M12 2C8.13 2 5 5.13 5 9c0 5.25 7 13 7 13s7-7.75 7-13c0-3.87-3.13-7-7-7zm0 9.5c-1.38 0-2.5-1.12-2.5-2.5s1.12-2.5 2.5-2.5 2.5 1.12 2.5 2.5-1.12 2.5-2.5 2.5z"/>
  </symbol>

  <!-- Arrow Right Icon -->
  <symbol id="arrow-right" viewBox="0 0 24 24">
    <path d="M8.59 16.59L13.17 12 8.59 7.41 10 6l6 6-6 6-1.41-1.41z"/>
  </symbol>

  <!-- Check Icon -->
  <symbol id="check" viewBox="0 0 24 24">
    <path d="M9 16.17L4.83 12l-1.42 1.41L9 19 21 7l-1.41-1.41L9 16.17z"/>
  </symbol>

</svg>
